<?xml version="1.0" encoding="UTF-8"?>
<svg width="294px" height="148px" viewBox="0 0 294 148" version="1.1" xmlns="http://www.w3.org/2000/svg" xmlns:xlink="http://www.w3.org/1999/xlink">
    <!-- Generator: Sketch 52.5 (67469) - http://www.bohemiancoding.com/sketch -->
    <title>No result found</title>
    <desc>Created with Sketch.</desc>
    <defs>
        <linearGradient x1="38.8671875%" y1="23.4757087%" x2="38.8671875%" y2="0%" id="linearGradient-1">
            <stop stop-color="#FFFFFF" stop-opacity="0" offset="0%"></stop>
            <stop stop-color="#F2F2F2" offset="100%"></stop>
        </linearGradient>
        <linearGradient x1="38.8671875%" y1="84.5592406%" x2="38.8671875%" y2="0%" id="linearGradient-2">
            <stop stop-color="#FFFFFF" offset="0%"></stop>
            <stop stop-color="#F2F2F2" offset="100%"></stop>
        </linearGradient>
    </defs>
    <g id="Page-1" stroke="none" stroke-width="1" fill="none" fill-rule="evenodd">
        <g id="00_FLIGHTS_DepartureNoResult" transform="translate(-13.000000, -196.000000)">
            <g id="IOS-/-Empty-State-/-Illustration-/-no-result-found" transform="translate(10.000000, 183.000000)">
                <g id="Group-4" transform="translate(3.658537, 13.726124)">
                    <g id="Group-9" transform="translate(0.000000, 16.314479)">
                        <g id="Group-19" transform="translate(66.772904, 0.000000)">
                            <rect id="Rectangle-38" fill="#EDEEF1" opacity="0.8" x="0" y="43.3085592" width="116.621356" height="32.7543725" rx="1.5804878"></rect>
                            <path d="M5.38252413,49.624245 C5.38252413,48.7491506 6.09357226,48.0397464 6.95836419,48.0397464 L21.3895962,48.0397464 C22.2599087,48.0397464 22.9654363,48.7403299 22.9654363,49.624245 L22.9654363,74.7968784 C22.9654363,75.6719729 22.2543882,76.3813771 21.3895962,76.3813771 L6.95836419,76.3813771 C6.08805176,76.3813771 5.38252413,75.6807935 5.38252413,74.7968784 L5.38252413,49.624245 Z" id="Rectangle-39" fill="#FFFFFF"></path>
                            <path d="M26.239582,49.624245 C26.239582,48.7491506 26.9506301,48.0397464 27.815422,48.0397464 L42.2466541,48.0397464 C43.1169665,48.0397464 43.8224941,48.7403299 43.8224941,49.624245 L43.8224941,74.7968784 C43.8224941,75.6719729 43.111446,76.3813771 42.2466541,76.3813771 L27.815422,76.3813771 C26.9451096,76.3813771 26.239582,75.6807935 26.239582,74.7968784 L26.239582,49.624245 Z" id="Rectangle-39" fill="#FFFFFF"></path>
                            <rect id="Rectangle-39" fill="#FFFFFF" x="47.7250473" y="48.0397464" width="17.5829122" height="28.3416307" rx="1.5804878"></rect>
                            <rect id="Rectangle-39" fill="#FFFFFF" x="68.8963089" y="48.0397464" width="17.5829122" height="28.3416307" rx="1.5804878"></rect>
                            <g id="Group" transform="translate(88.632231, 0.000000)">
                                <path d="M53.3292517,45.6197754 C53.3292517,44.7453202 54.0270955,44.0364342 54.9117065,44.0364342 L70.1207407,44.0364342 C70.9947064,44.0364342 71.7031955,44.7534055 71.7031955,45.6197754 L71.7031955,47.4572332 C71.7031955,48.3316884 71.0053517,49.0405744 70.1207407,49.0405744 L54.9117065,49.0405744 C54.0377408,49.0405744 53.3292517,48.3236031 53.3292517,47.4572332 L53.3292517,45.6197754 Z" id="Rectangle-37" fill="#ECEDF0"></path>
                                <path d="M62.7402961,39.4417236 L62.7402961,43.6724967" id="Line" stroke="#CBCED9" stroke-width="1.5804878" stroke-linecap="square"></path>
                                <polygon id="Path-9" fill="#E4E6EB" points="23.3035385 25.9599727 46.8372766 25.9305449 43.3286184 35.3929192 26.6655011 35.3929192"></polygon>
                                <path d="M30.9220031,21.9272327 C30.9220031,21.1734935 31.5325757,20.5624672 32.2840318,20.5624672 L37.1784388,20.5624672 C37.9306665,20.5624672 38.5404676,21.1682386 38.5404676,21.9272327 L38.5404676,21.9272327 C38.5404676,22.6809719 37.9298949,23.2919982 37.1784388,23.2919982 L32.2840318,23.2919982 C31.5318041,23.2919982 30.9220031,22.6862268 30.9220031,21.9272327 L30.9220031,21.9272327 Z" id="Rectangle-35" fill="#CBCED9"></path>
                                <path d="M34.5071628,4.41274186 L34.5071628,20.3350063" id="Line" stroke="#CBCED9" stroke-width="1.5804878" stroke-linecap="round"></path>
                                <rect id="Rectangle-36" fill="#DBDCE1" x="56.0181215" y="36.0298098" width="13.4443492" height="3.18445289" rx="1.5804878"></rect>
                                <ellipse id="Oval-6" fill="#CBCED9" cx="34.5071628" cy="1.36476552" rx="1.34443492" ry="1.36476552"></ellipse>
                                <ellipse id="Oval-6" fill="#FFFFFF" cx="34.0903514" cy="1.11455851" rx="1" ry="1"></ellipse>
                                <path d="M15.685074,49.8050564 C15.685074,48.9306011 16.3947457,48.2217151 17.2662634,48.2217151 L85.8070801,48.2217151 C86.6803469,48.2217151 87.3882695,48.9386864 87.3882695,49.8050564 L87.3882695,51.6425141 C87.3882695,52.5169693 86.6785978,53.2258554 85.8070801,53.2258554 L17.2662634,53.2258554 C16.3929966,53.2258554 15.685074,52.5088841 15.685074,51.6425141 L15.685074,49.8050564 Z" id="Rectangle-33" fill="#E4E5E8"></path>
                                <polygon id="Path-8" fill="#FFFFFF" points="0 52.8619179 17.5004113 76.1903093 82.7195092 76.0188036 100.507013 53.0731408"></polygon>
                                <polygon id="Path-7" fill="#ECEDF0" points="23.5462593 56.9675875 37.6776689 56.9675875 37.6776689 72.5131198 23.5275176 72.4463031"></polygon>
                                <polygon id="Path-7" fill="#ECEDF0" points="62.0971866 56.8780248 76.2285963 56.8780248 76.2285963 72.423557 62.078445 72.3567404"></polygon>
                                <polygon id="Path-7" fill="#ECEDF0" points="44.478743 56.7742457 58.6101526 56.7742457 58.6101526 72.319778 44.4600013 72.2529614"></polygon>
                                <path d="M34.850847,26.3854668 L34.850847,34.8925052" id="Line" stroke="#FFFFFF" stroke-width="3.95121951" stroke-linecap="square"></path>
                                <g id="Group-17" transform="translate(6.274030, 56.956214)" fill="#ECEDF0">
                                    <polygon id="Path-10" transform="translate(7.170320, 3.411914) scale(-1, 1) translate(-7.170320, -3.411914) " points="0.0157550967 0 5.4573488e-14 6.82382761 9.03248445 6.82382761 14.3406391 0"></polygon>
                                    <polygon id="Path-12" transform="translate(10.531407, 12.055429) scale(-1, 1) translate(-10.531407, -12.055429) " points="6.72217458 8.64351497 14.3406391 8.71343213 8.82047493 15.4673426 6.72217458 15.4673426"></polygon>
                                </g>
                                <g id="Group-17" transform="translate(79.321660, 56.956214)" fill="#ECEDF0">
                                    <polygon id="Path-10" points="0.0157550967 0 0 6.82382761 9.03248445 6.82382761 14.3406391 0"></polygon>
                                    <polygon id="Path-12" points="0 8.64351497 7.61846452 8.71343213 2.09830035 15.4673426 0 15.4673426"></polygon>
                                </g>
                            </g>
                            <rect id="Rectangle-34" fill="#ECEDF0" x="110.680644" y="22.8370764" width="25.5442634" height="3.18445289" rx="1.5804878"></rect>
                        </g>
                        <g id="Group-2" transform="translate(140.905308, 55.680018)" opacity="0.884001359" stroke="#DFE2EC" stroke-linecap="round" stroke-linejoin="round" stroke-width="0.790243902">
                            <path d="M6.12697274,1.03417549 L0.157101865,9.39117593" id="Line"></path>
                            <path d="M2.98493544,8.12035486 L0.157101865,12.2571835" id="Line"></path>
                            <path d="M8.64060258,0.159222644 L3.92754663,7.16205891" id="Line"></path>
                        </g>
                        <polyline id="Path-17" stroke="#F2F3F6" stroke-width="2.37073171" points="192.799344 57.1848831 179.288584 57.2031327 179.313317 72.2003249"></polyline>
                        <g id="Group-2" transform="translate(119.832138, 55.680018)" opacity="0.884001359" stroke="#DFE2EC" stroke-linecap="round" stroke-linejoin="round" stroke-width="0.790243902">
                            <path d="M6.12697274,1.03417549 L0.157101865,9.39117593" id="Line"></path>
                            <path d="M2.98493544,8.12035486 L0.157101865,12.2571835" id="Line"></path>
                            <path d="M8.64060258,0.159222644 L3.92754663,7.16205891" id="Line"></path>
                        </g>
                        <g id="Group-2" transform="translate(98.758967, 55.680018)" opacity="0.884001359" stroke="#DFE2EC" stroke-linecap="round" stroke-linejoin="round" stroke-width="0.790243902">
                            <path d="M6.12697274,1.03417549 L0.157101865,9.39117593" id="Line"></path>
                            <path d="M2.98493544,8.12035486 L0.157101865,12.2571835" id="Line"></path>
                            <path d="M8.64060258,0.159222644 L3.92754663,7.16205891" id="Line"></path>
                        </g>
                        <g id="Group-2" transform="translate(76.180570, 55.680018)" opacity="0.884001359" stroke="#DFE2EC" stroke-linecap="round" stroke-linejoin="round" stroke-width="0.790243902">
                            <path d="M6.12697274,1.03417549 L0.157101865,9.39117593" id="Line"></path>
                            <path d="M2.98493544,8.12035486 L0.157101865,12.2571835" id="Line"></path>
                            <path d="M8.64060258,0.159222644 L3.92754663,7.16205891" id="Line"></path>
                        </g>
                        <polygon id="Path-14" fill="#F4F5F8" points="166.890169 63.6947352 163.786794 57.9499697 175.846203 57.9437501 175.846203 56.8086668 161.602173 56.8086668"></polygon>
                        <polyline id="Path-14" fill="#F4F5F8" points="243.436193 63.6751433 246.664072 57.9499697 234.605657 57.9499697 234.605657 56.8086668 248.848513 56.8086668"></polyline>
                        <polygon id="Path-15" fill="#F4F5F8" points="234.605657 65.4616425 242.19518 65.4616425 236.769029 72.2310928 240.85736 66.1971143 234.605657 66.1971143"></polygon>
                        <polygon id="Path-16" fill="#F4F5F8" points="175.935298 65.4616425 168.375692 65.5267932 173.822861 72.2884689 169.53754 66.0999325 175.942202 66.0837615"></polygon>
                        <polyline id="Path-17" stroke="#F2F3F6" stroke-width="2.37073171" points="217.295552 57.1848831 230.806313 57.2031327 230.78158 72.2003249"></polyline>
                        <polyline id="Path-17" stroke="#F2F3F6" stroke-width="2.37073171" points="199.985448 57.1848831 213.496208 57.2031327 213.471475 72.2003249"></polyline>
                        <rect id="Rectangle-32" fill="#FFFFFF" x="183.05165" y="37.6216336" width="14.7887841" height="38.7502827"></rect>
                        <rect id="Rectangle-21" fill="#CACDD8" opacity="0.5" x="183.05165" y="37.6216336" width="3.58834942" height="38.7502827"></rect>
                        <rect id="Rectangle-21" fill="#CACDD8" opacity="0.5" x="188.696249" y="37.6216336" width="3.58834942" height="38.7502827"></rect>
                        <rect id="Rectangle-21" fill="#CACDD8" opacity="0.5" x="194.340849" y="37.6216336" width="3.58834942" height="38.7502827"></rect>
                        <rect id="Rectangle-22" fill="#ECEDF0" x="179.288584" y="34.9881193" width="21.5109587" height="3.18445289" rx="1.5804878"></rect>
                        <path d="M265.491839,52.3763399 C264.801833,52.5655257 263.359682,52.4361582 262.068036,53.0818947 C260.776598,53.7284426 260.731927,54.8907658 260.811763,55.2782168 C260.857413,55.5009504 261.02514,55.6214608 261.160152,55.6831413 C261.215544,55.4303966 261.300102,55.16021 261.434246,54.8995625 C262.030827,53.8774666 263.198546,53.5725043 263.393963,53.5059903 C263.49813,53.472734 263.687716,53.4250843 263.911469,53.3784526 C264.138556,53.3348639 264.382726,53.2803232 264.621893,53.1969773 C265.095645,53.0448902 265.502515,52.8603401 265.501682,52.86034 C265.502515,52.8603401 265.121692,53.0917512 264.661905,53.2969863 C264.437325,53.4038643 264.174408,53.4918732 263.957948,53.5527052 C263.740655,53.6186084 263.560654,53.6772129 263.460654,53.7096583 C263.361279,53.7421037 263.048152,53.8363957 262.69087,54.0517841 C262.51025,54.1619123 262.330257,54.295774 262.136726,54.4685814 C261.958402,54.6144114 261.813626,54.8115658 261.711978,55.0304298 C261.533679,55.4121738 261.470179,55.8322685 261.448339,56.1706192 C261.563149,56.3083661 261.785254,56.4335478 262.209231,56.4583402 C265.881209,56.1400514 266.455351,51.755925 266.455351,51.755925 C266.455351,51.755925 266.182053,52.1869514 265.491839,52.3763399 Z" id="Fill-1" fill="#FEDD00" opacity="0.5" transform="translate(263.621323, 54.107133) rotate(373.000000) translate(-263.621323, -54.107133) "></path>
                        <polygon id="Rectangle-41" fill="url(#linearGradient-1)" points="0 76.1342345 292.682927 76.1342345 292.682927 115.838689 0 115.838689"></polygon>
                    </g>
                    <path d="M246.689895,25.7386891 C246.689895,25.7386891 247.889637,23.6114003 249.398745,22.9490138 C250.907853,22.2866274 252.572588,22.3932788 252.572588,22.3932788 C252.572588,22.3932788 252.648987,18.2458308 258.345399,17.6360527 C264.041812,17.0262745 264.964254,20.8035513 264.964254,20.8035513 C264.964254,20.8035513 267.492501,19.5126787 269.862726,19.8561234 C272.23295,20.1995681 273.242185,22.0030207 273.242185,22.0030207 C273.242185,22.0030207 274.540989,21.0503701 276.516479,22.0030207 C278.491969,22.9556714 278.924921,24.7434355 278.924921,24.7434355 C278.924921,24.7434355 281.393728,24.7434355 281.393728,26.7573773 C281.393728,28.7713191 279.637032,28.2524098 279.637032,28.2524098" id="Path-13" fill="url(#linearGradient-2)"></path>
                    <g id="Group-10" transform="translate(25.087108, 0.000000)">
                        <path d="M36.5916512,6.02048922 C37.1281324,2.6085502 40.0625177,0 43.6019946,0 C47.5221113,0 50.6999937,3.19977179 50.6999937,7.14689033 C50.6999937,8.40248928 50.3784209,9.58246352 49.8136771,10.6078711 C49.3726326,10.2418351 48.8529262,9.89565164 48.2420143,9.59916213 C45.0468236,8.04846309 42.9461172,9.59916213 42.9461172,9.59916213 C42.9461172,9.59916213 41.3137633,6.66355055 37.4801229,6.10450048 C37.1848203,6.06143725 36.8880011,6.03415892 36.5916512,6.02048922 Z" id="Combined-Shape" fill="#FEDD00"></path>
                        <path d="M0,15.6799824 C0,15.6799824 1.94048136,12.217239 4.38133842,11.1390242 C6.82219548,10.0608093 9.51476593,10.2344136 9.51476593,10.2344136 C9.51476593,10.2344136 9.63833432,3.48330963 18.851807,2.49072919 C28.0652796,1.49814875 29.5572535,7.64669801 29.5572535,7.64669801 C29.5572535,7.64669801 33.6464826,5.54545042 37.4801229,6.10450048 C41.3137633,6.66355055 42.9461172,9.59916213 42.9461172,9.59916213 C42.9461172,9.59916213 45.0468236,8.04846309 48.2420143,9.59916213 C51.437205,11.1498612 52.1374696,14.0599354 52.1374696,14.0599354 C52.1374696,14.0599354 56.1305592,14.0599354 56.1305592,17.3381756 C56.1305592,20.6164158 53.289249,19.7717493 53.289249,19.7717493" id="Path-13" fill="url(#linearGradient-2)"></path>
                    </g>
                    <ellipse id="Oval-2" fill="#F6F6FA" cx="42.9598955" cy="145.523416" rx="14.1097213" ry="1"></ellipse>
                    <g id="Group" transform="translate(20.487805, 61.493036)">
                        <g id="Group-11" transform="translate(28.319901, 71.623504) rotate(3.000000) translate(-28.319901, -71.623504) translate(23.302479, 59.073905)">
                            <path d="M1.44691274,0.363317642 C1.20818421,0.437761837 0.065011714,0.50536716 0.308789576,1.71623647 C0.503399712,2.68288471 0.980742497,4.89025175 1.1227888,6.80097725 C1.44276901,11.1051679 1.88520066,15.3429041 2.45008376,19.5141858 L5.88429438,19.5141858 C5.77077378,17.7587409 5.73584195,16.5033643 5.77949889,15.7480559 C6.11762259,9.89817994 6.23771693,6.13742895 6.23771693,5.21084883 C6.23771693,4.10481523 5.92322727,2.42172901 5.29424794,0.161590177 C2.88851017,0.24644569 1.6060651,0.313688178 1.44691274,0.363317642 Z" id="Path-63" fill="#FDE6D1"></path>
                            <path d="M5.833066,14.8835449 L5.86756218,14.2330756 L1.80922164,14.2330756 L1.87964133,14.8835449 C2.63402139,14.9833925 3.1993106,15.0333162 3.57550896,15.0333162 C3.95170732,15.0333162 4.70422634,14.9833925 5.833066,14.8835449 Z" id="Path-66" fill="#B9BCC8"></path>
                            <path d="M1.8724188,14.8801965 C2.02202111,16.2130566 2.13942737,17.2127993 2.22463759,17.8794246 C2.30984781,18.5460498 2.38811483,19.0771183 2.45943866,19.4726299 L6.01705139,19.4726299 C5.91790768,18.5347416 5.86019621,17.8252024 5.84391699,17.3440123 C5.82763777,16.8628223 5.82763777,16.0415504 5.84391699,14.8801965 C5.0333273,14.9253843 4.42626205,14.9479782 4.02272124,14.9479782 C3.61918044,14.9479782 2.90241295,14.9253843 1.8724188,14.8801965 Z" id="Path-64" fill="#CACDD8"></path>
                            <path d="M2.48987855,18.9644081 C3.07483116,19.0074396 3.67127414,19.0513163 4.27920751,19.0960383 C4.88714088,19.1407603 5.54083109,19.1757609 6.24027813,19.2010401 C6.38889061,20.7636978 6.93593221,21.579803 7.88140293,21.6493557 C9.29960902,21.7536846 9.69716565,22.4793912 9.77261918,22.9100008 C9.82213426,23.1925808 9.98290232,23.6379111 9.26023522,24.1784552 C8.4313617,24.7984402 2.83976799,24.4479895 2.35657049,24.3515541 C1.87337299,24.2551187 2.36589855,22.1846189 2.4107946,21.5986085 C2.43963445,21.2221733 2.46599577,20.3441065 2.48987855,18.9644081 Z" id="Path-2" fill="#000000" transform="translate(5.984359, 21.750967) rotate(-4.000000) translate(-5.984359, -21.750967) "></path>
                        </g>
                        <g id="Group-11" transform="translate(18.184303, 71.108656) rotate(7.000000) translate(-18.184303, -71.108656) translate(13.166882, 58.768217)">
                            <path d="M0.39540284,0.760689433 C0.232884265,0.5823622 0.232884265,0.890094636 0.39540284,1.68388674 C0.590012975,2.63442417 0.980742497,4.80874755 1.1227888,6.68762763 C1.44276901,10.9200818 1.88520066,15.087189 2.45008376,19.1889494 L5.88429438,19.1889494 C5.77077378,17.4627619 5.73584195,16.2283082 5.77949889,15.4855883 C6.11762259,9.73321028 6.23771693,6.03513847 6.23771693,5.12400135 C6.23771693,4.03640164 6.03294795,2.36788836 5.62340997,0.118461514 L0.39540284,0.760689433 Z" id="Path-63" fill="#FDE6D1"></path>
                            <path d="M5.833066,14.6354858 L5.86756218,13.9958577 L1.80922164,13.9958577 L1.87964133,14.6354858 C2.63402139,14.7336692 3.1993106,14.782761 3.57550896,14.782761 C3.95170732,14.782761 4.70422634,14.7336692 5.833066,14.6354858 Z" id="Path-66" fill="#B9BCC8"></path>
                            <path d="M1.8724188,14.6321932 C2.02202111,15.942839 2.13942737,16.9259193 2.22463759,17.5814342 C2.30984781,18.236949 2.38811483,18.7591663 2.45943866,19.1480861 L6.01705139,19.1480861 C5.91790768,18.2258292 5.86019621,17.5281157 5.84391699,17.0549455 C5.82763777,16.5817753 5.82763777,15.7741912 5.84391699,14.6321932 C5.0333273,14.6766279 4.42626205,14.6988453 4.02272124,14.6988453 C3.61918044,14.6988453 2.90241295,14.6766279 1.8724188,14.6321932 Z" id="Path-64" fill="#CACDD8"></path>
                            <path d="M2.48987699,18.6483366 C3.07482962,18.6906505 3.67127263,18.7337957 4.27920603,18.777772 C4.88713942,18.8217483 5.54082965,18.8561652 6.2402767,18.8810226 C6.38889005,20.417636 6.93593211,21.2201391 7.88140287,21.288532 C9.29960902,21.3911213 9.69716605,22.1047326 9.77261983,22.5281653 C9.82213506,22.8060356 9.98290337,23.2439436 9.26023658,23.7754791 C8.4313634,24.3851315 2.83976949,24.0405248 2.35657194,23.9456969 C1.87337438,23.850869 2.36589879,21.8148773 2.41079451,21.2386337 C2.43963416,20.8684724 2.46599498,20.00504 2.48987699,18.6483366 Z" id="Path-2" fill="#000000" transform="translate(5.984360, 21.388452) rotate(-4.000000) translate(-5.984360, -21.388452) "></path>
                        </g>
                        <rect id="Rectangle-18" fill="#B9BCC8" x="9.61672474" y="35.1388775" width="1.67247387" height="5.43815961" rx="0.836236934"></rect>
                        <path d="M15.7242175,34.689181 C16.9182652,35.7515264 18.4251801,36.2826686 20.244962,36.2826075 C22.064744,36.2825465 24.8429654,36.4558267 28.5796261,36.8024482 C29.8002662,45.8145583 30.0101397,53.7461425 29.2092466,60.5972008 C29.2092466,60.5972008 27.537895,60.6449019 25.8083041,60.8468234 C24.123352,61.0435336 22.380708,61.4135266 22.2545943,60.0216276 C22.0842153,58.141179 21.7338627,56.4111807 21.2035363,54.8316329 C20.880066,58.143762 20.5990701,59.8523449 20.3605487,59.9573815 C20.138344,60.0552329 18.0984443,59.9155276 14.2408493,59.5382657 L14.2408529,59.5382292 C13.7582427,59.4910313 13.4052712,59.0615369 13.4524691,58.5789266 C13.4526457,58.5771208 13.4528279,58.5753155 13.4530157,58.5735108 C14.6011256,47.5403518 15.245296,41.1934093 15.3855269,39.5326831 C15.5294358,37.8283995 15.6423326,36.2138988 15.7242175,34.689181 Z" id="Path-65" fill="#0064D2" transform="translate(21.566716, 47.866094) rotate(-4.000000) translate(-21.566716, -47.866094) "></path>
                        <path d="M12.9825784,31.3947022 L12.9825784,41.3929726 L13.358885,41.3929726 L13.358885,31.3947022 L12.9825784,31.3947022 Z" id="Rectangle-14" stroke="#979797" stroke-width="0.87804878" fill="#D8D8D8"></path>
                        <path d="M13.3797909,33.0472776 L13.3797909,31.3739977 L11.2891986,31.3739977 L11.2891986,33.0472776 L13.3797909,33.0472776 Z M13.0452962,31.3739977 L11.6236934,31.3739977 L11.6236934,33.0472776 L13.0452962,33.0472776 L13.0452962,31.3739977 Z M13.3797909,33.1300953 L13.3797909,31.2911801 L11.2891986,31.2911801 L11.2891986,33.1300953 L13.3797909,33.1300953 Z" id="Rectangle-15" stroke="#979797" stroke-width="3.51219512" fill="#D8D8D8"></path>
                        <path d="M17.4245716,19.3105989 L17.4243117,21.3468075 L21.6417526,21.346269 L21.6419138,20.0829903 C22.5321509,19.5568367 23.179427,19.0286198 23.5837419,18.4983396 C24.1902144,17.7029194 24.1248936,17.7270926 24.4861255,15.9921349 C24.7269468,14.8354965 24.7272177,12.7126601 24.4869384,9.62362565 L16.9467397,15.4857284 L17.4245716,19.3105989 Z" id="Path-29" fill="#FDE6D1" transform="translate(20.806842, 15.485217) rotate(-16.000000) translate(-20.806842, -15.485217) "></path>
                        <path d="M13.6767853,13.0197119 C13.7684754,14.980093 14.0629479,16.362756 14.5602026,17.1677011 C15.0574573,17.9726461 15.9420116,18.792165 17.2138654,19.6262578 L19.0969425,19.2288019 C19.654631,18.8097228 19.9774983,18.3493946 20.0655443,17.8478173 C20.1535903,17.3462399 20.2821581,16.7497869 20.4512476,16.0584582 C19.9894936,16.2337838 19.7586675,15.7573244 19.7587693,14.6290799 C19.7588711,13.5008354 20.3542065,13.108349 21.5447756,13.4516206 C23.1160465,13.3935435 24.1078428,12.927526 24.5201646,12.0535682 C24.8938294,11.2615476 24.6626866,8.94261444 23.4866853,8.53897445 C22.3056859,8.13361893 21.3244816,7.13657331 17.4257586,7.98881772 C14.82661,8.55698066 13.5769522,10.2339454 13.6767853,13.0197119 Z" id="Path-28" fill="#222222" transform="translate(19.177824, 13.640259) rotate(-11.000000) translate(-19.177824, -13.640259) "></path>
                        <path d="M15.6214429,23.1202839 C16.4642236,22.1301627 17.4840077,21.511229 18.6807953,21.2634827 C19.8775828,21.0157364 21.5341738,20.9618449 23.6505683,21.1018082 C24.9225406,21.3609889 25.9925249,21.8249946 26.8605214,22.4938252 C27.5256773,23.006358 26.8440694,26.7856785 27.6518044,33.7297673 C28.1902944,38.3591599 28.8084937,42.1960494 29.5064024,45.2404361 C27.515205,45.4156021 26.0532383,45.6011669 25.1205023,45.7971304 C23.0733785,46.2272216 20.4274263,46.4335166 17.740275,46.4335166 C15.6780725,46.4335166 13.9458321,46.0358231 12.543554,45.2404361 L13.7350057,26.165905 L15.6214429,23.1202839 Z" id="Path-30" fill="#FEDD00"></path>
                        <path d="M28.2256022,19.6177606 C26.340948,18.967277 24.9830464,18.2579901 24.1518974,17.4898998 C22.9051738,16.3377645 22.8882449,15.4295054 23.16735,15.1881312 C23.4464551,14.946757 25.7302242,16.1651271 26.2926867,16.1650553 C26.8551493,16.1649835 26.0837596,14.7273499 26.2928852,14.6110099 C26.4323022,14.5334499 26.7386783,14.8809862 27.2120135,15.6536187 L28.4561701,17.4946994 L28.2256022,19.6177606 Z" id="Path-38" fill="#F4DAC3" transform="translate(25.738537, 17.109079) scale(-1, 1) rotate(106.000000) translate(-25.738537, -17.109079) "></path>
                        <path d="M26.9735368,22.842235 C30.487197,26.041899 32.098776,27.2106651 31.8082736,26.3485336 C31.5177712,25.486402 29.7413606,23.2632291 26.4790419,19.6790149 L28.3423996,17.7836569 C34.2439054,24.4020164 37.1946583,28.6014826 37.1946583,30.3820555 C37.1946583,32.1626285 33.7876178,31.7442 26.9735368,29.12677 L26.9735368,22.842235 Z" id="Path-37" fill="#FEDD00"></path>
                        <path d="M24.6934632,22.7653151 C25.2469975,22.959369 25.6736819,23.197175 25.6736819,25.0556762 C25.6736819,25.2545024 25.6671173,24.4303426 25.6736819,24.4999937 C25.7796078,25.6238776 25.8593401,31.3904437 25.9128789,41.7996921 L25.912902,41.799692 C25.9240814,43.9732293 24.1711439,45.744292 21.9976066,45.7554714 C21.8241372,45.7563636 21.6507985,45.7457857 21.4787247,45.7238068 L20.4878049,25.8147902 L21.1454735,22.5929269 C23.1278453,22.573599 24.3105085,22.6310617 24.6934632,22.7653151 Z" id="Path-62" fill="#B9BCC8"></path>
                        <path d="M10.7336558,25.4903868 L10.5503398,38.8947509 C10.4972898,42.7738518 13.5989169,45.9614899 17.4780177,46.0145399 C17.5100344,46.0149777 17.5420536,46.0151967 17.5740733,46.0151967 L22.0026327,46.0151967 L22.1602787,22.5892784 L10.7336558,25.4903868 Z" id="Path-61" fill="#CACDD8"></path>
                        <path d="M13.3955405,22.7118504 L24.2508711,22.7118504 C22.792567,23.2581459 21.9094508,24.1232453 21.6015226,25.3071484 C21.2935944,26.4910516 21.1551838,27.9555747 21.186291,29.7007179 L10.9538607,29.7007476 C10.4689113,29.7007476 10.0757822,29.3076184 10.0757822,28.8226691 C10.0757822,28.8042342 10.0763627,28.7858038 10.0775229,28.7674054 C10.1691559,27.3143446 10.372706,26.0592268 10.6881732,25.002052 C11.0608336,23.7532151 11.9052371,22.9956252 13.2213838,22.7292822 L13.2213864,22.729295 C13.2787119,22.7176943 13.337053,22.7118504 13.3955405,22.7118504 Z" id="Path-60" fill="#B9BCC8"></path>
                        <rect id="Rectangle-17" fill="#B9BCC8" x="12.543554" y="28.8640779" width="1.67247387" height="10.4579992"></rect>
                        <rect id="Rectangle-17" fill="#B9BCC8" x="17.1428571" y="28.8640779" width="1.67247387" height="10.4579992"></rect>
                        <polygon id="Rectangle" fill="#B9BCC8" points="11.7073171 33.8839176 14.6341463 33.8839176 14.6341463 35.9755174 11.7073171 35.9755174"></polygon>
                        <polygon id="Rectangle" fill="#B9BCC8" points="16.7247387 33.8839176 19.6515679 33.8839176 19.6515679 35.9755174 16.7247387 35.9755174"></polygon>
                        <path d="M22.5783972,39.8315382 C22.5783972,40.4742331 22.9169901,40.995357 23.3345718,40.995357 L24.7490519,40.995357 C25.16673,40.995357 25.5052265,40.4742331 25.5052265,39.8315382 L25.5052265,35.9755174 L22.5783972,35.9755174 L22.5783972,39.8315382 Z" id="Fill-13" fill="#CACDD8"></path>
                        <path d="M23.3345718,35.1388775 L24.7490519,35.1388775 C25.16673,35.1388775 25.5052265,35.4395204 25.5052265,35.8102992 L25.5052265,36.3938374 L22.5783972,36.3938374 L22.5783972,35.8102992 C22.5783972,35.4395204 22.9169901,35.1388775 23.3345718,35.1388775" id="Fill-19" fill="#E1E1E1"></path>
                        <g id="Group-6" transform="translate(19.233449, 9.203039) rotate(-11.000000) translate(-19.233449, -9.203039) translate(10.034843, 1.673280)"></g>
                        <path d="M22.0915223,20.9804035 C21.4238877,21.3990302 20.9618578,21.736896 20.7054325,21.9940009 C20.4490073,22.2511059 20.2370919,22.5889717 20.0696864,23.0075983 L22.2441658,23.0075983 C22.417122,22.5808831 22.6915277,22.2430173 23.0673829,21.9940009 C23.443238,21.7449846 23.9771069,21.5473419 24.6689895,21.401073 C24.4417868,21.2065001 24.1093736,21.0662769 23.6717497,20.9804035 C23.2341259,20.8945301 22.7073834,20.8945301 22.0915223,20.9804035 Z" id="Path-59" fill="#B9BCC8"></path>
                        <path d="M6.40929685,13.4933007 C9.38859179,13.4934254 11.8036813,10.9532914 11.8035502,7.81975268 C11.8034192,4.68621394 9.3881172,2.14587783 6.40882226,2.14575317 C4.09840403,2.1456565 2.12729174,3.67323896 1.35874473,5.82054482 C1.13624684,6.44219975 1.01453944,7.1157955 1.01456886,7.81930124 C1.01460481,8.67892311 1.89171994,11.1499395 1.71621747,12.5431095 C1.63332479,13.2011264 0.852776591,13.4930682 0.488253239,13.493053 C0.176400745,13.4930399 4.63333819,13.4932264 6.40929685,13.4933007 Z" id="Oval" fill="#CACDD8" transform="translate(6.138119, 7.819527) scale(-1, 1) rotate(5.000000) translate(-6.138119, -7.819527) "></path>
                        <path d="M5.3266839,8.87622686 C5.3266839,8.67531938 5.34929714,8.49572297 5.39452431,8.33743223 C5.43975148,8.17914149 5.49911125,8.03455116 5.57260539,7.90365689 C5.64609954,7.77276263 5.72948588,7.65404635 5.82276692,7.54750451 C5.91604795,7.44096266 6.01074092,7.33898843 6.10684865,7.24157874 C6.34429129,7.01023074 6.51671728,6.8215023 6.6241318,6.67538778 C6.73154633,6.52927325 6.78525279,6.36489687 6.78525279,6.18225371 C6.78525279,5.98743434 6.72023971,5.82457996 6.5902116,5.6936857 C6.46018349,5.56279143 6.26514425,5.49734528 6.00508803,5.49734528 C5.79025898,5.49734528 5.57684648,5.54604939 5.36484413,5.64345908 C5.15284178,5.74086876 4.93377597,5.88393709 4.70764012,6.07266836 L4.20731707,5.23251402 C4.42214612,5.00116602 4.68643842,4.80330556 5.00020191,4.63892672 C5.31396539,4.47454787 5.67436398,4.39235968 6.0814085,4.39235968 C6.3697317,4.39235968 6.634024,4.43649778 6.87429333,4.52477531 C7.11456266,4.61305284 7.32090852,4.73481312 7.4933371,4.89005981 C7.66576568,5.04530649 7.80144515,5.23251293 7.90037958,5.45168472 C7.99931401,5.67085651 8.04878049,5.91133307 8.04878049,6.1731216 C8.04878049,6.35576476 8.02616724,6.51709713 7.98094007,6.65712355 C7.93571291,6.79714997 7.87493981,6.92499827 7.79861896,7.04067227 C7.72229812,7.15634627 7.63608512,7.26288652 7.53997739,7.3602962 C7.44386965,7.45770589 7.34493671,7.55207011 7.24317558,7.64339169 C7.15837464,7.72253706 7.0749883,7.80320324 6.99301405,7.88539267 C6.91103981,7.96758209 6.83754676,8.0573803 6.77253271,8.15478998 C6.70751865,8.25219967 6.65239887,8.36026192 6.6071717,8.47897997 C6.56194453,8.59769802 6.53367798,8.73011233 6.52237118,8.87622686 L5.3266839,8.87622686 Z M6.76829268,10.1573318 C6.76829268,10.3601744 6.7071464,10.517642 6.58485201,10.6297392 C6.46255762,10.7418364 6.3102914,10.7978842 6.12804878,10.7978842 C5.94580616,10.7978842 5.79353994,10.7418364 5.67124555,10.6297392 C5.54895116,10.517642 5.48780488,10.3601744 5.48780488,10.1573318 C5.48780488,9.95448914 5.54895116,9.79702157 5.67124555,9.68492433 C5.79353994,9.57282709 5.94580616,9.51677931 6.12804878,9.51677931 C6.3102914,9.51677931 6.46255762,9.57282709 6.58485201,9.68492433 C6.7071464,9.79702157 6.76829268,9.95448914 6.76829268,10.1573318 Z" id="?" fill="#FFFFFF"></path>
                    </g>
                    <path d="" id="Path-42" stroke="#979797" stroke-width="0.87804878"></path>
                    <path d="" id="Path-43" stroke="#979797" stroke-width="0.87804878"></path>
                    <g id="Group-15" transform="translate(233.728223, 120.894471)" fill="#FEDD00">
                        <path d="M2.54828631,14.2476071 C2.18199859,14.3669795 1.41646054,14.2854616 0.730780101,14.692847 C0.0452102633,15.1007443 0.0214447153,15.8339048 0.0638066003,16.0782925 C0.0880292051,16.2187834 0.177059234,16.294788 0.248725269,16.3336864 C0.278140787,16.1742596 0.323039381,16.0038292 0.394259621,15.839413 C0.710992076,15.1946717 1.33087227,15.0022434 1.43460941,14.9602771 C1.48990642,14.939294 1.59054712,14.9092271 1.70932535,14.8798003 C1.82987314,14.8522928 1.95948958,14.8178761 2.08645144,14.7652903 C2.33794223,14.669331 2.55393177,14.552899 2.55348939,14.552899 C2.55393177,14.552899 2.35176706,14.698888 2.10768668,14.8283706 C1.98846671,14.8957989 1.8488971,14.9513275 1.73398982,14.9897109 C1.61864023,15.0312932 1.52308701,15.0682695 1.47000188,15.0887408 C1.41724854,15.1092121 1.25102567,15.1687067 1.06135801,15.3045878 C0.965473549,15.3740637 0.869921127,15.45851 0.76718046,15.5675227 C0.672512922,15.6595181 0.595651679,15.7838855 0.541683774,15.921944 C0.447018736,16.1627468 0.413291797,16.4277334 0.401682937,16.6411559 C0.462622089,16.7280359 0.580517391,16.8069838 0.805577915,16.8225977 C2.75480654,16.621619 3.05978033,13.8562127 3.05978033,13.8562127 C3.05978033,13.8562127 2.91468462,14.1281067 2.54828631,14.2476071 Z" id="Fill-1" opacity="0.3" transform="translate(1.555305, 15.339405) rotate(362.000000) translate(-1.555305, -15.339405) "></path>
                        <path d="M28.2139522,0.456847388 C27.7417218,0.336040491 27.2550865,0.27500784 26.7609356,0.27500784 C25.7482082,0.27500784 24.8062526,0.540531333 24.0402874,1.04641021 C22.8020918,1.82850903 21.9609706,3.15046367 21.7799698,4.58819159 C21.5451072,6.04353718 22.1563763,7.57690389 23.296869,8.41751855 C24.4686768,9.30721101 26.1935076,9.45947804 27.3258585,8.75162513 C28.5978742,7.98273956 29.1559078,6.31346509 28.5759537,5.03052101 C28.28034,4.38684676 27.7028912,3.8853723 27.0321236,3.68906109 C26.8342128,3.62991605 26.6337967,3.59782672 26.4377647,3.59027628 C26.640686,3.60537715 26.8442336,3.64942133 27.0321236,3.7161168 C27.6784655,3.93696691 28.2189626,4.44850862 28.4757457,5.08463243 C28.6053898,5.3923125 28.6717777,5.72893589 28.6642621,6.05549203 C28.6567465,6.39966585 28.5978742,6.71678395 28.4782509,7.05089053 C28.2383779,7.68260993 27.7761683,8.23064538 27.2062351,8.56286435 C26.7878666,8.81580379 26.2761793,8.95359916 25.7331769,8.95359916 C24.9333915,8.95359916 24.1185749,8.66353676 23.4947799,8.15954549 C22.464516,7.3359193 21.9584654,5.98690895 22.1714075,4.6397862 C22.3473979,3.32978641 23.1327784,2.11794222 24.2701396,1.41512293 C24.8106367,1.07094912 25.4494629,0.845065386 26.1127149,0.763898252 C26.3914185,0.727404502 26.7484096,0.722370881 27.1129164,0.751943403 C27.447987,0.780886722 27.7855628,0.837514955 28.0943289,0.916165279 C29.3832547,1.24838425 30.5650833,2.06446 31.3354326,3.15298048 C32.1408547,4.24653459 32.5222715,5.56911843 32.4389736,6.96783579 C32.3826066,8.31684614 31.920397,9.68347416 31.1400269,10.804084 C30.362162,11.9297274 29.2417109,12.8489924 27.9841,13.3919942 C27.4066512,13.6480797 26.7390151,13.8299192 25.9999809,13.9381421 C25.5402765,14.0042083 25.0580253,14.0142756 24.4755661,14.0211968 L8.26065287,14.2401593 L5.51307372,14.3458654 L23.8467606,14.3584494 C24.0597027,14.3584494 24.2726448,14.3584494 24.4830817,14.3609662 L24.8720141,14.3628538 C25.2196108,14.3628538 25.6304637,14.3559326 26.0388115,14.3112592 C26.7828561,14.2181372 27.4899491,14.0312641 28.1356647,13.7563025 C29.4665527,13.2007166 30.6577757,12.2418119 31.4901287,11.0551358 C32.3337552,9.87034733 32.8354217,8.42255217 32.9086988,6.97727382 C33.011412,5.50997339 32.5880331,4.01058361 31.7444066,2.85536766 C30.9026591,1.67812961 29.6156121,0.806054825 28.2139522,0.456847388 Z" id="Fill-1"></path>
                        <path d="M15.6142368,12.5776386 L16.083962,12.5826722 C16.2361529,12.585189 16.3776968,12.5877058 16.5198669,12.5877058 C16.7691344,12.5877058 17.0973158,12.5826722 17.4392757,12.5310776 C18.0975172,12.4228548 18.7238175,12.1428596 19.2474045,11.7200355 C20.3190042,10.8724996 20.8795429,9.46119818 20.6810057,8.12414268 C20.4780845,6.78708717 19.3206816,5.66899417 17.9897936,5.52868199 C17.2783165,5.43807682 16.607549,5.60984913 16.1083877,6.00058394 C15.5653854,6.40893642 15.2134046,7.01611691 15.1351171,7.67489203 C15.0349091,8.34310518 15.2816714,9.03648643 15.7639226,9.45176014 C16.2455474,9.89157275 17.003997,10.0633451 17.5764354,9.86451704 C17.9897936,9.72672167 18.3248642,9.3926151 18.4889549,8.99181305 C18.2960544,9.37310982 17.938437,9.67009344 17.5156843,9.76636143 C17.3854139,9.79593396 17.2682957,9.81040562 17.1511776,9.81040562 C16.6833313,9.81040562 16.2067168,9.60654398 15.900456,9.27935863 C15.4921082,8.84961326 15.3355332,8.299061 15.4601669,7.68936369 C15.5678906,7.1583167 15.9079716,6.63482015 16.3432503,6.32021885 C16.8010757,5.99366271 17.3246628,5.870339 17.9340529,5.96157337 C19.0664037,6.10628997 20.0352902,7.08218319 20.1818444,8.22292748 C20.3803816,9.35297533 19.8981304,10.6289982 18.9762165,11.3834121 C18.5234014,11.7665965 17.9628627,12.0296031 17.3659986,12.1403428 C17.1217415,12.1894206 16.8843737,12.1994878 16.620075,12.2045215 L7.01012411,12.4599777 C6.55041973,12.4989883 6.07818935,12.5335944 5.60345377,12.5682006 L15.3969106,12.5801554 C15.4601669,12.5776386 15.5384545,12.5776386 15.6142368,12.5776386 Z" id="Fill-3"></path>
                        <path d="M12.2623032,4.61365538 C11.9472284,4.71624614 11.2886652,4.64600513 10.698887,4.99622114 C10.1092041,5.3468773 10.0888921,5.97736981 10.1253777,6.18754377 C10.1462403,6.30836626 10.2228414,6.37374404 10.2844986,6.40720845 C10.3097744,6.27011132 10.3483673,6.12355423 10.4096044,5.98217389 C10.681955,5.42777222 11.2151677,5.2624012 11.3043992,5.22633012 C11.3519643,5.20829524 11.4385343,5.18245676 11.5407071,5.15717198 C11.6444025,5.13353806 11.7558979,5.10396405 11.8651064,5.05876463 C12.0814322,4.97628781 12.2672146,4.87619857 12.2668341,4.87619848 C12.2672146,4.87619857 12.0933303,5.00170845 11.8833852,5.11301573 C11.7808393,5.17098064 11.6607856,5.21870839 11.5619443,5.25169634 C11.4627232,5.28743505 11.3805309,5.31921639 11.3348685,5.33681155 C11.2894915,5.35440678 11.1465102,5.40554041 10.9833745,5.52236001 C10.9009031,5.58209001 10.8187201,5.65469411 10.7303578,5.74842341 C10.6489373,5.82751971 10.5828404,5.93445818 10.5364398,6.0531748 C10.4550483,6.26024111 10.4260827,6.48811579 10.4161347,6.67165092 C10.4685729,6.74637615 10.5700056,6.81429033 10.7636151,6.82775836 C12.4403885,6.65527394 12.7022416,4.27715975 12.7022416,4.27715975 C12.7022416,4.27715975 12.5774731,4.5109546 12.2623032,4.61365538 Z" id="Fill-1" opacity="0.3" transform="translate(11.408213, 5.552459) rotate(215.000000) translate(-11.408213, -5.552459) "></path>
                        <path d="M38.2916055,3.40662506 C37.8961029,3.53551853 37.0695061,3.44749888 36.3291363,3.88737706 C35.5888859,4.32780787 35.5632248,5.11944479 35.6089655,5.38332467 C35.63512,5.53502106 35.731251,5.6170877 35.8086331,5.65908861 C35.8403948,5.48694601 35.8888745,5.30292223 35.9657752,5.12539229 C36.30777,4.4292269 36.9770914,4.22145062 37.0891025,4.17613714 C37.14881,4.15348046 37.2574777,4.12101548 37.3857296,4.08924162 C37.5158922,4.05954014 37.6558468,4.02237836 37.792935,3.9655983 C38.0644845,3.86198541 38.2977012,3.73626682 38.2972236,3.73626682 C38.2977012,3.73626682 38.079412,3.89389984 37.815864,4.0337099 C37.6871351,4.10651626 37.5364335,4.1664737 37.4123613,4.20791859 C37.2878115,4.25281739 37.184637,4.29274292 37.1273179,4.31484701 C37.070357,4.33695111 36.8908763,4.40119092 36.6860809,4.54790979 C36.5825487,4.62292708 36.4793751,4.71410871 36.3684399,4.83181627 C36.2662218,4.93114915 36.1832301,5.06543597 36.1249578,5.21450597 C36.0227423,5.47451498 35.9863253,5.7606367 35.9737906,5.9910817 C36.0395902,6.08489114 36.1668887,6.17013591 36.4098999,6.1869951 C38.5145977,5.96998645 38.8438959,2.98401329 38.8438959,2.98401329 C38.8438959,2.98401329 38.6872275,3.27759345 38.2916055,3.40662506 Z" id="Fill-1" opacity="0.3" transform="translate(37.219425, 4.585504) rotate(362.000000) translate(-37.219425, -4.585504) "></path>
                    </g>
                    <ellipse id="Oval-2" fill="#F6F6FA" cx="125.017422" cy="116.30138" rx="29.2682927" ry="1"></ellipse>
                    <g id="Group-3" transform="translate(95.331010, 70.277755)">
                        <path d="M48.4453316,23.0075983 L52.3439005,23.0075983 C53.0544274,23.0075983 53.7171153,23.3656542 54.1065321,23.959963 L57.8494751,29.6722588 C58.1868094,30.1870819 58.3665033,30.7891899 58.3665033,31.4046874 L58.3665033,40.5133797 L45.284356,40.5133797 L45.284356,26.1685739 C45.284356,24.4228153 46.699573,23.0075983 48.4453316,23.0075983 Z" id="Rectangle-44" fill="#EEEFF3"></path>
                        <path d="M48.3506526,25.0082591 L51.3293312,25.0082591 C52.0407042,25.0082591 52.7040624,25.3671623 53.0932691,25.9626199 L55.667107,29.9004016 C56.11522,30.5859815 56.3538652,31.387275 56.3538652,32.2063141 L56.3538652,36.4587301 C56.3538652,37.0406496 55.8821262,37.5123886 55.3002067,37.5123886 L51.1521875,37.5123886 C50.2369504,37.5123886 49.4362891,36.8965052 49.2015118,36.0118931 L48.9964748,35.2393386 C48.8825764,34.8101833 48.4941486,34.5113975 48.0501362,34.5113975 L48.0501362,34.5113975 C47.6341873,34.5113975 47.296994,34.1742043 47.296994,33.7582554 L47.296994,26.0619176 C47.296994,25.4799981 47.768733,25.0082591 48.3506526,25.0082591 Z" id="Rectangle-44" fill="#DBDCE0"></path>
                        <path d="M40.3213458,35.6321169 L30.9756643,14.4570452" id="Path-35" stroke="#F0F2F4" stroke-width="3.16097561"></path>
                        <polygon id="Rectangle-7" fill="#E4E6EB" points="3.01895707 36.0118931 46.7938345 36.0118931 49.3096321 42.0138752 3.01895707 42.0138752"></polygon>
                        <rect id="Rectangle-2" fill="#E4E6EB" x="47.296994" y="40.5133797" width="10.0631902" height="1.50049554"></rect>
                        <ellipse id="Oval-11" fill="#CBCED9" cx="17.1074234" cy="42.0138752" rx="4.02527609" ry="4.00132145"></ellipse>
                        <ellipse id="Oval-11" fill="#ECEDF0" cx="17.1074234" cy="42.0138752" rx="2.01263804" ry="2.00066073"></ellipse>
                        <ellipse id="Oval-11" fill="#CBCED9" cx="40.2527609" cy="42.0138752" rx="4.02527609" ry="4.00132145"></ellipse>
                        <ellipse id="Oval-11" fill="#ECEDF0" cx="40.2527609" cy="42.0138752" rx="2.01263804" ry="2.00066073"></ellipse>
                        <path d="M55.8507057,40.0132145 L58.3191638,40.0132145 C58.9010833,40.0132145 59.3728223,40.4849535 59.3728223,41.066873 L59.3728223,41.4603819 C59.3728223,42.0423014 58.9010833,42.5140404 58.3191638,42.5140404 L55.8507057,42.5140404 L55.8507057,40.0132145 Z" id="Rectangle-43" fill="#B9BCC8"></path>
                        <polygon id="Rectangle-46" fill="#D0D2D7" transform="translate(38.065122, 30.698277) rotate(-22.000000) translate(-38.065122, -30.698277) " points="36.7110786 25.215445 39.4208425 25.2149915 39.4190076 36.1815621 36.7094007 35.2434986"></polygon>
                        <polygon id="Rectangle-45" fill="#B5B9C9" points="37.7948155 34.5113975 41.7063328 34.5113975 42.2653989 36.0118931 37.2338038 36.0118931"></polygon>
                        <path d="M3.25697849,30.0517824 L2.73533366,25.2046924 C2.5948684,23.8994984 3.07058366,22.6033827 4.02204745,21.698961 L24.9787855,1.77836145 C26.1538546,0.661389874 27.7131322,0.0385438626 29.3343703,0.0385438626 L37.0491021,0.0385438626 C38.3183109,0.0385438626 39.4644398,0.797686495 39.9595987,1.96632187 L41.8832998,6.50649076" id="Path-47" stroke="#D3D8DD" stroke-width="3.16097561"></path>
                        <path d="M30.7120971,0.052025616 L31.6990492,4.30298862" id="Path-49" stroke="#D3D8DD" stroke-width="3.16097561"></path>
                        <path d="M9.71811269,23.6825103 L9.0568712,17.0056162" id="Path-48" stroke="#D3D8DD" stroke-width="3.16097561"></path>
                        <path d="M16.2591863,17.6805281 L15.5979448,11.003634" id="Path-48" stroke="#D3D8DD" stroke-width="3.16097561"></path>
                        <path d="M22.80026,11.1783807 L22.1390185,4.50148663" id="Path-48" stroke="#D3D8DD" stroke-width="3.16097561"></path>
                        <polygon id="Rectangle-46" fill="#D8D8D8" transform="translate(32.882014, 18.889418) rotate(-26.000000) translate(-32.882014, -18.889418) " points="31.3725383 18.1395258 34.3917749 18.1389526 34.3914902 19.6393092 31.3722535 19.6398825"></polygon>
                        <polygon id="Rectangle-46" fill="#D0D2D7" transform="translate(31.356324, 16.070984) rotate(-27.000000) translate(-31.356324, -16.070984) " points="29.2194659 13.2796532 33.4942703 13.2788199 33.4931822 18.8623155 29.2183778 18.8631488"></polygon>
                        <path d="M4.66264023,40.5141744 L33.2324367,13.8627262 C33.622607,13.4987543 34.136322,13.2963428 34.6699027,13.2963428 L46.5558265,13.2963428 C47.7196656,13.2963428 48.6631436,12.3528648 48.6631436,11.1890257 C48.6631436,10.826747 48.569747,10.4705863 48.3919702,10.1549263 L44.685677,3.57404357 C44.3122786,2.91103855 43.6104551,2.50082591 42.8495333,2.50082591 L29.9190112,2.50082591 C28.8460137,2.50082591 27.8134154,2.91007823 27.0317477,3.64514248 L1.0841577,28.0457231 C0.352496041,28.7337627 -0.00864850828,29.7285616 0.111225179,30.7257364 L1.13292068,39.2247575 C1.27182953,40.3802772 2.32117119,41.2044031 3.47669088,41.0654942 C3.92047265,41.0121457 4.33579729,40.8190711 4.66264023,40.5141744 Z" id="Path-46" fill="#DEE1E6"></path>
                    </g>
                </g>
            </g>
        </g>
    </g>
</svg>